#Comment line ignore any data following # character 
#Hierarchical Translation and Rotation (.htr) file 
[Header]	
#Header keywords are followed by a single value 
FileType HTR		#Single word string
DataType HTRS		#Translation followed by rotation and scale data
FileVersion 1		#integer
NumSegments 64		#integer
NumFrames 3		#integer
DataFrameRate 30		#integer, data frame rate in this file
EulerRotationOrder ZYX
CalibrationUnits mm
RotationUnits Degrees
GlobalAxisofGravity Y
BoneLengthAxis Y
ScaleFactor 1.00
[SegmentNames&Hierarchy]
#CHILD	PARENT
Pinger_Root GLOBAL
Pelvis Pinger_Root
L_Hip Pelvis
R_Hip Pelvis
Rear_Leg01 Pelvis
Spine1 Pelvis
L_Leg01 L_Hip
L_Leg02 L_Leg01
L_Leg03 L_Leg02
L_Foot L_Leg03
L_Toe1_01 L_Foot
L_Toe2_01 L_Foot
L_Toe3_01 L_Foot
planeAlignerLeft L_Foot
L_Toe1_02 L_Toe1_01
L_Toe1_03 L_Toe1_02
L_Toe2_02 L_Toe2_01
L_Toe2_03 L_Toe2_02
L_Toe3_02 L_Toe3_01
L_Toe3_03 L_Toe3_02
planeLockWeightLeft planeAlignerLeft
R_Leg01 R_Hip
R_Leg02 R_Leg01
R_Leg03 R_Leg02
R_Foot R_Leg03
planeAlignerRight R_Foot
R_Toe1_01 R_Foot
R_Toe2_01 R_Foot
R_Toe3_01 R_Foot
planeLockWeightRight planeAlignerRight
R_Toe1_02 R_Toe1_01
R_Toe1_03 R_Toe1_02
R_Toe2_02 R_Toe2_01
R_Toe2_03 R_Toe2_02
R_Toe3_02 R_Toe3_01
R_Toe3_03 R_Toe3_02
Rear_Leg02 Rear_Leg01
Rear_Leg03 Rear_Leg02
Rear_Leg04 Rear_Leg03
Rear_Foot Rear_Leg04
planeAlignerCenter Rear_Foot
Rear_Toe1_01 Rear_Foot
Rear_Toe2_01 Rear_Foot
Rear_Toe3_01 Rear_Foot
planeLockWeightCenter planeAlignerCenter
Rear_Toe1_02 Rear_Toe1_01
Rear_Toe1_03 Rear_Toe1_02
Rear_Toe2_02 Rear_Toe2_01
Rear_Toe2_03 Rear_Toe2_02
Rear_Toe3_02 Rear_Toe3_01
Rear_Toe3_03 Rear_Toe3_02
Back_Bone Spine1
Head Spine1
Motor_Bone Back_Bone
Ping_Mechanism Back_Bone
BN_LookIK Head
bottomMouth Head
L_Mouth01 Head
L_mouthFront Head
mouthGun Head
R_Mouth01 Head
R_mouthFront Head
TopMouth Head
weapon_bone Head
[BasePosition]
#SegmentName Tx, Ty, Tz, Rx, Ry, Rz, BoneLength
Pinger_Root 0.000000 0.000000 0.000000 -90.000000 0.000000 0.000000 10.000000 
Pelvis 0.000000 0.000000 0.000000 0.000000 0.000000 0.000000 10.000000 
L_Hip 0.000000 0.000000 0.000000 0.000000 0.000000 0.000000 10.000000 
R_Hip 0.000000 0.000000 0.000000 0.000000 0.000000 0.000000 10.000000 
Rear_Leg01 0.000000 0.000000 0.000000 0.000000 0.000000 0.000000 10.000000 
Spine1 0.000000 0.000000 0.000000 0.000000 0.000000 0.000000 10.000000 
L_Leg01 0.000000 0.000000 0.000000 0.000000 0.000000 0.000000 10.000000 
L_Leg02 0.000000 0.000000 0.000000 0.000000 0.000000 0.000000 10.000000 
L_Leg03 0.000000 0.000000 0.000000 0.000000 0.000000 0.000000 10.000000 
L_Foot 0.000000 0.000000 0.000000 0.000000 0.000000 0.000000 10.000000 
L_Toe1_01 0.000000 0.000000 0.000000 0.000000 0.000000 0.000000 10.000000 
L_Toe2_01 0.000000 0.000000 0.000000 0.000000 0.000000 0.000000 10.000000 
L_Toe3_01 0.000000 0.000000 0.000000 0.000000 0.000000 0.000000 10.000000 
planeAlignerLeft 0.000000 0.000000 0.000000 0.000000 0.000000 0.000000 10.000000 
L_Toe1_02 0.000000 0.000000 0.000000 0.000000 0.000000 0.000000 10.000000 
L_Toe1_03 0.000000 0.000000 0.000000 0.000000 0.000000 0.000000 10.000000 
L_Toe2_02 0.000000 0.000000 0.000000 0.000000 0.000000 0.000000 10.000000 
L_Toe2_03 0.000000 0.000000 0.000000 0.000000 0.000000 0.000000 10.000000 
L_Toe3_02 0.000000 0.000000 0.000000 0.000000 0.000000 0.000000 10.000000 
L_Toe3_03 0.000000 0.000000 0.000000 0.000000 0.000000 0.000000 10.000000 
planeLockWeightLeft 0.000000 0.000000 0.000000 0.000000 0.000000 0.000000 10.000000 
R_Leg01 0.000000 0.000000 0.000000 0.000000 0.000000 0.000000 10.000000 
R_Leg02 0.000000 0.000000 0.000000 0.000000 0.000000 0.000000 10.000000 
R_Leg03 0.000000 0.000000 0.000000 0.000000 0.000000 0.000000 10.000000 
R_Foot 0.000000 0.000000 0.000000 0.000000 0.000000 0.000000 10.000000 
planeAlignerRight 0.000000 0.000000 0.000000 0.000000 0.000000 0.000000 10.000000 
R_Toe1_01 0.000000 0.000000 0.000000 0.000000 0.000000 0.000000 10.000000 
R_Toe2_01 0.000000 0.000000 0.000000 0.000000 0.000000 0.000000 10.000000 
R_Toe3_01 0.000000 0.000000 0.000000 0.000000 0.000000 0.000000 10.000000 
planeLockWeightRight 0.000000 0.000000 0.000000 0.000000 0.000000 0.000000 10.000000 
R_Toe1_02 0.000000 0.000000 0.000000 0.000000 0.000000 0.000000 10.000000 
R_Toe1_03 0.000000 0.000000 0.000000 0.000000 0.000000 0.000000 10.000000 
R_Toe2_02 0.000000 0.000000 0.000000 0.000000 0.000000 0.000000 10.000000 
R_Toe2_03 0.000000 0.000000 0.000000 0.000000 0.000000 0.000000 10.000000 
R_Toe3_02 0.000000 0.000000 0.000000 0.000000 0.000000 0.000000 10.000000 
R_Toe3_03 0.000000 0.000000 0.000000 0.000000 0.000000 0.000000 10.000000 
Rear_Leg02 0.000000 0.000000 0.000000 0.000000 0.000000 0.000000 10.000000 
Rear_Leg03 0.000000 0.000000 0.000000 0.000000 0.000000 0.000000 10.000000 
Rear_Leg04 0.000000 0.000000 0.000000 0.000000 0.000000 0.000000 10.000000 
Rear_Foot 0.000000 0.000000 0.000000 0.000000 0.000000 0.000000 10.000000 
planeAlignerCenter 0.000000 0.000000 0.000000 0.000000 0.000000 0.000000 10.000000 
Rear_Toe1_01 0.000000 0.000000 0.000000 0.000000 0.000000 0.000000 10.000000 
Rear_Toe2_01 0.000000 0.000000 0.000000 0.000000 0.000000 0.000000 10.000000 
Rear_Toe3_01 0.000000 0.000000 0.000000 0.000000 0.000000 0.000000 10.000000 
planeLockWeightCenter 0.000000 0.000000 0.000000 0.000000 0.000000 0.000000 10.000000 
Rear_Toe1_02 0.000000 0.000000 0.000000 0.000000 0.000000 0.000000 10.000000 
Rear_Toe1_03 0.000000 0.000000 0.000000 0.000000 0.000000 0.000000 10.000000 
Rear_Toe2_02 0.000000 0.000000 0.000000 0.000000 0.000000 0.000000 10.000000 
Rear_Toe2_03 0.000000 0.000000 0.000000 0.000000 0.000000 0.000000 10.000000 
Rear_Toe3_02 0.000000 0.000000 0.000000 0.000000 0.000000 0.000000 10.000000 
Rear_Toe3_03 0.000000 0.000000 0.000000 0.000000 0.000000 0.000000 10.000000 
Back_Bone 0.000000 0.000000 0.000000 0.000000 0.000000 0.000000 10.000000 
Head 0.000000 0.000000 0.000000 0.000000 0.000000 0.000000 10.000000 
Motor_Bone 0.000000 0.000000 0.000000 0.000000 0.000000 0.000000 10.000000 
Ping_Mechanism 0.000000 0.000000 0.000000 0.000000 0.000000 0.000000 10.000000 
BN_LookIK 0.000000 0.000000 0.000000 0.000000 0.000000 0.000000 10.000000 
bottomMouth 0.000000 0.000000 0.000000 0.000000 0.000000 0.000000 10.000000 
L_Mouth01 0.000000 0.000000 0.000000 0.000000 0.000000 0.000000 10.000000 
L_mouthFront 0.000000 0.000000 0.000000 0.000000 0.000000 0.000000 10.000000 
mouthGun 0.000000 0.000000 0.000000 0.000000 0.000000 0.000000 10.000000 
R_Mouth01 0.000000 0.000000 0.000000 0.000000 0.000000 0.000000 10.000000 
R_mouthFront 0.000000 0.000000 0.000000 0.000000 0.000000 0.000000 10.000000 
TopMouth 0.000000 0.000000 0.000000 0.000000 0.000000 0.000000 10.000000 
weapon_bone 0.000000 0.000000 0.000000 0.000000 0.000000 0.000000 10.000000 
#Beginning of Data. Separated by tabs
#Fr	Tx	Ty	Tz	Rx	Ry	Rz	SF
[Pinger_Root]
31 3888.887939 0.000000 0.000000 -0.000075 -0.000000 -0.000020 3888.887939
32 4018.517578 0.000000 0.000000 -0.000075 -0.000000 -0.000020 4018.517578
33 4148.146973 0.000000 0.000000 -0.000075 -0.000000 -0.000020 4148.146973
[Pelvis]
31 256.634460 -224.182571 5149.950684 52.787365 -76.799065 -74.505783 5161.211914
32 258.340363 -282.670013 5181.847168 53.783939 -78.000862 -75.134651 5195.977539
33 262.743927 -335.797455 5211.754395 54.959972 -79.199776 -75.943764 5229.166504
[L_Hip]
31 5.766392 125.831482 872.656799 -178.250168 -81.786369 87.376007 881.701050
32 5.766392 125.831482 872.656799 -178.250168 -81.786369 87.376007 881.701050
33 5.766392 125.831482 872.656799 -178.250168 -81.786369 87.376007 881.701050
[R_Hip]
31 5.765438 125.836372 -872.654907 -1.748770 81.786041 87.376961 881.699829
32 5.765438 125.836372 -872.654907 -1.748770 81.786041 87.376961 881.699829
33 5.765438 125.836372 -872.654907 -1.748770 81.786041 87.376961 881.699829
[Rear_Leg01]
31 -192.298416 -925.602966 -0.001907 -158.168991 -18.124405 -179.618576 945.367432
32 -192.298416 -925.602966 -0.001907 -157.568527 -20.325006 179.336761 945.367432
33 -192.298416 -925.602966 -0.001907 -157.372864 -22.479244 178.160934 945.367432
[Spine1]
31 290.604584 5.007505 0.000477 3.542472 -11.915683 42.167309 290.647736
32 290.604584 5.007505 0.000477 3.519922 -11.020202 41.604610 290.647736
33 290.604584 5.007505 0.000477 3.488508 -10.124980 41.043198 290.647736
[L_Leg01]
31 761.932007 -0.002384 -0.069261 134.447754 -27.696995 -91.207153 761.932068
32 761.932007 -0.002384 -0.069261 140.639450 -29.457506 -94.111748 761.932068
33 761.932007 -0.002384 -0.069261 136.452011 -33.335457 -93.440666 761.932068
[L_Leg02]
31 1441.140503 -0.000954 -0.000715 -1.279336 0.814704 -96.505486 1441.140503
32 1441.140503 -0.000954 -0.000715 -1.279388 0.811600 -100.089218 1441.140503
33 1441.140503 -0.000954 -0.000715 -1.379240 0.702318 -103.050667 1441.140503
[L_Leg03]
31 1686.963989 -0.000715 -0.000954 0.097533 -0.012523 84.150360 1686.963989
32 1686.963989 -0.000715 -0.000954 0.090454 -0.013529 84.972565 1686.963989
33 1686.963989 -0.000715 -0.000954 0.064951 -0.015517 92.691589 1686.963989
[L_Foot]
31 3041.570068 -30.715107 11.297464 -62.019096 10.212151 22.706301 3041.746094
32 3041.570068 -30.715107 11.297464 -66.468147 9.499245 20.481144 3041.746094
33 3041.570068 -30.715107 11.297464 -61.637001 8.405466 14.915593 3041.746094
[L_Toe1_01]
31 -188.216690 -224.732346 -21.137953 88.109337 0.547675 -116.355774 293.899567
32 -188.216690 -224.732346 -21.137953 88.150642 0.362988 -112.382858 293.899567
33 -188.216690 -224.732346 -21.137953 88.210983 -0.515596 -125.877029 293.899567
[L_Toe2_01]
31 200.746536 -219.926590 148.838394 -74.789818 -9.624305 -60.051743 332.896027
32 200.746536 -219.926590 148.838394 -74.294701 -8.353710 -63.966797 332.896027
33 200.746536 -219.926590 148.838394 -73.682831 -6.532082 -69.434288 332.896027
[L_Toe3_01]
31 188.832520 -219.859131 -191.078659 -109.589897 11.798404 -61.879601 347.140900
32 188.832520 -219.859131 -191.078659 -110.154907 10.217739 -65.596245 347.140900
33 188.832520 -219.859131 -191.078659 -110.856964 7.933004 -70.852425 347.140900
[planeAlignerLeft]
31 -92.352013 -816.394897 7.151822 0.000000 -90.000000 -90.001900 821.632935
32 -81.904373 -814.507141 7.705074 0.000000 -90.000000 -90.001900 818.651062
33 -65.196381 -808.156189 7.184300 0.000000 -90.000000 -90.001900 810.813538
[L_Toe1_02]
31 413.761139 0.000477 0.000000 0.001661 0.065952 0.001661 413.761139
32 413.761139 0.000477 0.000000 0.001416 -21.982801 0.001416 413.761139
33 413.761139 0.000477 0.000000 0.001395 -24.573400 0.001395 413.761139
[L_Toe1_03]
31 464.317322 0.000358 -0.000089 0.001673 -0.448396 -0.003292 464.317322
32 464.317322 0.000358 -0.000089 0.000888 29.326992 -0.003164 464.317322
33 464.317322 0.000358 -0.000089 0.006800 70.123856 0.006800 464.317322
[L_Toe2_02]
31 342.235809 -0.000477 0.000238 0.001184 -74.555931 0.001184 342.235809
32 342.235809 -0.000477 0.000238 0.001182 -76.426025 0.001182 342.235809
33 342.235809 -0.000477 0.000238 0.001180 -77.652336 0.001180 342.235809
[L_Toe2_03]
31 420.210846 -0.000715 0.000000 -179.956268 88.551659 -179.952774 420.210846
32 420.210846 -0.000715 0.000000 -179.993118 82.363831 -179.989624 420.210846
33 420.210846 -0.000715 0.000000 -179.996475 77.517067 -179.992966 420.210846
[L_Toe3_02]
31 329.270111 0.000954 0.000000 0.001180 -78.454506 0.001180 329.270111
32 329.270111 0.000954 0.000000 0.001178 -80.137375 0.001178 329.270111
33 329.270111 0.000954 0.000000 0.001177 -81.279579 0.001177 329.270111
[L_Toe3_03]
31 439.137451 -0.001907 0.000954 -179.986053 85.806839 -179.982529 439.137451
32 439.137451 -0.001907 0.000954 -179.995193 79.947968 -179.991684 439.137451
33 439.137451 -0.001907 0.000954 -179.997269 75.320351 -179.993744 439.137451
[planeLockWeightLeft]
31 0.001311 0.097961 0.075989 -0.011826 -0.004376 0.005620 0.123986
32 0.000138 0.098000 0.075998 -0.011826 -0.004376 0.005620 0.124015
33 0.000162 0.098038 0.076008 -0.011826 -0.004376 0.005620 0.124051
[R_Leg01]
31 761.455627 -0.001907 -0.000358 117.378387 18.255693 53.648426 761.455688
32 761.455627 -0.001907 -0.000358 120.801216 18.897594 56.762581 761.455688
33 761.455627 -0.001907 -0.000358 123.852600 18.523634 59.562187 761.455688
[R_Leg02]
31 1441.140625 0.000000 -0.000238 0.210047 0.027153 -78.639931 1441.140625
32 1441.140625 0.000000 -0.000238 0.214027 0.029179 -78.046646 1441.140625
33 1441.140625 0.000000 -0.000238 0.213970 0.029600 -78.271759 1441.140625
[R_Leg03]
31 1686.963989 0.000954 0.001431 -0.074587 0.014002 90.023224 1686.963989
32 1686.963989 0.000954 0.001431 -0.072797 0.012501 90.413513 1686.963989
33 1686.963989 0.000954 0.001431 -0.071017 0.010988 90.803787 1686.963989
[R_Foot]
31 3041.560059 -30.531288 -11.204481 28.992500 -15.300396 59.087173 3041.734131
32 3041.560059 -30.531288 -11.204481 27.204165 -13.971503 60.379284 3041.734131
33 3041.560059 -30.531288 -11.204481 25.651569 -12.863209 61.979748 3041.734131
[planeAlignerRight]
31 -37.847435 -573.063110 28.379221 0.000000 -89.960434 -90.005180 575.012329
32 -13.016546 -577.058350 26.521317 0.000000 -89.960434 -90.005180 577.814148
33 11.814337 -581.053650 24.663408 0.000000 -89.960434 -90.005180 581.696838
[R_Toe1_01]
31 -188.383347 -224.864899 21.052242 90.722229 0.560548 -166.974548 294.101532
32 -188.383347 -224.864899 21.052242 90.710320 0.673798 -167.684662 294.101532
33 -188.383347 -224.864899 21.052242 90.696976 0.786888 -168.394775 294.101532
[R_Toe2_01]
31 200.637817 -220.002121 -148.787384 -100.879578 12.448276 -39.991085 332.857574
32 200.637817 -220.002121 -148.787384 -100.987358 12.019043 -40.789963 332.857574
33 200.637817 -220.002121 -148.787384 -101.088844 11.588356 -41.586811 332.857574
[R_Toe3_01]
31 188.606735 -220.092957 191.126343 -74.573631 -18.997107 -43.261539 347.192566
32 188.606735 -220.092957 191.126343 -74.572342 -18.232496 -43.595055 347.192566
33 188.606735 -220.092957 191.126343 -74.495697 -17.385477 -44.320679 347.192566
[planeLockWeightRight]
31 999.999329 -0.000400 0.076044 -0.011823 -0.004379 -0.000027 999.999329
32 999.999329 -0.000358 0.076054 -0.011823 -0.004379 -0.000027 999.999329
33 999.999329 -0.000316 0.076063 -0.011823 -0.004379 -0.000027 999.999329
[R_Toe1_02]
31 413.762085 0.000477 -0.000119 0.001410 -22.724047 0.001410 413.762085
32 413.762085 0.000477 -0.000119 0.001416 -21.997307 0.001416 413.762085
33 413.762085 0.000477 -0.000119 0.001422 -21.270540 0.001422 413.762085
[R_Toe1_03]
31 464.317810 0.000000 0.001088 0.013185 79.786720 0.013185 464.317810
32 464.317810 0.000000 0.001088 0.004140 83.152405 0.005892 464.317810
33 464.317810 0.000000 0.001088 -0.020666 86.517830 -0.017167 464.317810
[R_Toe2_02]
31 342.234741 -0.000954 0.000238 -0.002333 -79.254845 -0.002333 342.234741
32 342.234741 -0.000954 0.000238 -0.002335 -78.535095 -0.002335 342.234741
33 342.234741 -0.000954 0.000238 -0.002336 -77.815308 -0.002336 342.234741
[R_Toe2_03]
31 420.210846 0.000715 -0.000268 -179.995178 68.297508 -179.998718 420.210846
32 420.210846 0.000715 -0.000268 -179.994522 72.106506 -179.998077 420.210846
33 420.210846 0.000715 -0.000268 -179.993546 75.919662 -179.997070 420.210846
[R_Toe3_02]
31 329.270355 -0.000477 -0.000954 0.001176 -82.411957 0.001176 329.270355
32 329.270355 -0.000477 -0.000954 0.001177 -81.738487 0.001177 329.270355
33 329.270355 -0.000477 -0.000954 0.001177 -81.064987 0.001177 329.270355
[R_Toe3_03]
31 439.137939 0.000238 0.001431 -179.998535 69.575249 -179.994980 439.137939
32 439.137939 0.000238 0.001431 -179.997910 72.890137 -179.994370 439.137939
33 439.137939 0.000238 0.001431 -179.996979 76.207794 -179.993454 439.137939
[Rear_Leg02]
31 1162.777710 -0.029802 0.005960 -4.213920 10.416283 -119.888847 1162.777710
32 1162.777710 -0.029802 0.005960 -2.922688 10.466141 -113.400627 1162.777710
33 1162.777710 -0.029802 0.005960 -1.673005 10.121092 -106.539833 1162.777710
[Rear_Leg03]
31 607.192505 -0.013351 -0.073195 0.010476 -0.005138 68.602615 607.192505
32 607.192505 -0.013351 -0.073195 0.009205 -0.004018 66.198402 607.192505
33 607.192505 -0.013351 -0.073195 0.007887 -0.002953 63.793087 607.192505
[Rear_Leg04]
31 995.874512 -0.020504 -0.011921 -0.040196 -0.018797 67.237167 995.874573
32 995.874512 -0.020504 -0.011921 -0.039085 -0.018397 62.397747 995.874573
33 995.874512 -0.020504 -0.011921 -0.038002 -0.017899 57.514088 995.874573
[Rear_Foot]
31 3096.176270 -0.067472 -0.041425 156.170486 61.606060 -37.198769 3096.176270
32 3096.176270 -0.067472 -0.041425 157.826889 60.478390 -34.661358 3096.176270
33 3096.176270 -0.067472 -0.041425 159.661133 59.542946 -31.668224 3096.176270
[planeAlignerCenter]
31 0.553436 63.137093 -768.066650 0.000009 0.000003 -179.999985 770.657471
32 0.546977 67.145889 -754.336975 0.000009 0.000003 -179.999985 757.319702
33 0.540517 71.154671 -740.607361 0.000009 0.000003 -179.999985 744.017822
[Rear_Toe1_01]
31 0.653352 83.966492 -371.173737 0.066033 25.910475 90.034767 380.553192
32 0.653352 83.966492 -371.173737 0.063694 25.063141 90.033958 380.553192
33 0.653352 83.966492 -371.173737 0.061385 24.215811 90.033180 380.553192
[Rear_Toe2_01]
31 178.200760 -294.826019 -362.060547 0.869556 51.138351 -70.186905 499.765686
32 178.200760 -294.826019 -362.060547 0.908908 50.263561 -70.081406 499.765686
33 178.200760 -294.826019 -362.060547 0.945080 49.388683 -69.978737 499.765686
[Rear_Toe3_01]
31 -153.359680 -308.780914 -362.060852 -1.142140 51.129105 -112.282768 499.952881
32 -153.359680 -308.780914 -362.060852 -1.177564 50.257446 -112.395691 499.952881
33 -153.359680 -308.780914 -362.060852 -1.209722 49.385704 -112.505783 499.952881
[planeLockWeightCenter]
31 999.999878 0.000210 0.076396 -0.011814 -0.004373 -0.000015 999.999878
32 999.999878 0.000206 0.076409 -0.011814 -0.004373 -0.000015 999.999878
33 999.999878 0.000202 0.076422 -0.011814 -0.004373 -0.000015 999.999878
[Rear_Toe1_02]
31 379.707825 0.194073 0.000477 -0.000767 -33.624729 0.000838 379.707855
32 379.707825 0.194073 0.000477 -0.000767 -33.624729 0.000838 379.707855
33 379.707825 0.194073 0.000477 -0.000767 -33.624729 0.000838 379.707855
[Rear_Toe1_03]
31 500.129700 0.165701 0.000119 -0.000355 69.802628 0.001776 500.129761
32 500.129700 0.165701 0.000119 0.002051 70.216835 0.003471 500.129761
33 500.129700 0.165701 0.000119 0.004543 70.631027 0.005253 500.129761
[Rear_Toe2_02]
31 340.494507 0.000238 -0.000954 0.001177 -81.959755 0.001177 340.494507
32 340.494507 0.000238 -0.000954 0.001176 -82.876656 0.001176 340.494507
33 340.494507 0.000238 -0.000954 0.001175 -83.793159 0.001175 340.494507
[Rear_Toe2_03]
31 433.103577 0.000000 0.000238 179.929474 88.090836 179.929474 433.103546
32 433.103577 0.000000 0.000238 179.965408 86.109222 179.965408 433.103546
33 433.103577 0.000000 0.000238 179.977081 84.130341 179.977081 433.103546
[Rear_Toe3_02]
31 340.494141 -0.000358 -0.000477 0.001177 -81.864571 0.001177 340.494171
32 340.494141 -0.000358 -0.000477 0.001176 -82.779335 0.001176 340.494171
33 340.494141 -0.000358 -0.000477 0.001175 -83.693512 0.001175 340.494171
[Rear_Toe3_03]
31 433.103577 0.001431 -0.000238 -179.962463 88.321587 -179.958954 433.103546
32 433.103577 0.001431 -0.000238 -179.983688 86.351593 -179.980179 433.103546
33 433.103577 0.001431 -0.000238 -179.990021 84.383682 -179.986526 433.103546
[Back_Bone]
31 1312.175781 -701.934692 0.000954 2.870127 0.499462 -84.636963 1488.125488
32 1312.175781 -701.934692 0.000954 2.883559 1.259011 -84.453972 1488.125488
33 1312.175781 -701.934692 0.000954 2.899423 2.018476 -84.270721 1488.125488
[Head]
31 1406.159424 809.709290 0.001431 11.569747 -7.742333 0.323245 1622.625488
32 1406.159424 809.709290 0.001431 11.890467 -7.679673 -0.161363 1622.625488
33 1406.159424 809.709290 0.001431 12.033783 -7.447221 -0.500310 1622.625488
[Motor_Bone]
31 1158.364380 -417.834747 0.000477 -1.440882 0.000167 -105.983208 1231.419434
32 1158.364380 -417.834747 0.000477 -1.029635 1.419330 -104.575363 1231.419434
33 1158.364380 -417.834747 0.000477 -0.583231 2.827924 -103.156067 1231.419434
[Ping_Mechanism]
31 1172.978394 -392.073120 26.038845 0.000103 -0.000053 82.120995 1237.043945
32 1176.104248 -395.599518 22.600124 0.000103 -0.000053 82.120995 1241.060425
33 1179.229980 -399.125946 19.161411 0.000103 -0.000053 82.120995 1245.091187
[BN_LookIK]
31 193.241119 1380.371704 -0.002861 0.000000 89.965736 -31.038179 1393.832153
32 193.241119 1380.371704 -0.002861 0.000000 89.965736 -31.038179 1393.832153
33 193.241119 1380.371704 -0.002861 0.000000 89.965736 -31.038179 1393.832153
[bottomMouth]
31 -435.092926 615.759399 -0.000954 -0.000022 0.000016 73.527184 753.966492
32 -435.092926 615.759399 -0.000954 -0.000022 0.000016 73.527184 753.966492
33 -435.092926 615.759399 -0.000954 -0.000022 0.000016 73.527184 753.966492
[L_Mouth01]
31 554.440979 7.658243 838.222046 150.204178 23.759130 109.605339 1005.027161
32 554.440979 7.658243 838.222046 150.204178 23.759130 109.605339 1005.027161
33 554.440979 7.658243 838.222046 150.204178 23.759130 109.605339 1005.027161
[L_mouthFront]
31 551.629089 934.514771 339.150421 0.000081 2.804060 79.119301 1136.941284
32 551.629089 934.514771 339.150421 0.000081 2.804060 79.119301 1136.941284
33 551.629089 934.514771 339.150421 0.000081 2.804060 79.119301 1136.941284
[mouthGun]
31 55.332661 1627.420898 0.000000 0.000023 0.000009 -11.038128 1628.361328
32 55.332661 1627.420898 0.000000 0.000023 0.000009 -11.038128 1628.361328
33 55.332661 1627.420898 0.000000 0.000023 0.000009 -11.038128 1628.361328
[R_Mouth01]
31 554.442383 7.659197 -838.223938 29.795891 -23.759109 109.605331 1005.029541
32 554.442383 7.659197 -838.223938 29.795891 -23.759109 109.605331 1005.029541
33 554.442383 7.659197 -838.223938 29.795891 -23.759109 109.605331 1005.029541
[R_mouthFront]
31 551.629089 934.514282 -339.151367 0.000029 -2.803930 79.119133 1136.941162
32 551.629089 934.514282 -339.151367 0.000029 -2.803930 79.119133 1136.941162
33 551.629089 934.514282 -339.151367 0.000029 -2.803930 79.119133 1136.941162
[TopMouth]
31 461.269867 -56.106091 -0.008583 -0.000059 -0.000268 92.025169 464.669525
32 461.269867 -56.106091 -0.008583 -0.000059 -0.000268 92.025169 464.669525
33 461.269867 -56.106091 -0.008583 -0.000059 -0.000268 92.025169 464.669525
[weapon_bone]
31 -987.239868 1448.372803 0.001431 0.000000 89.965736 -31.038221 1752.833740
32 -987.239868 1448.372803 0.001431 0.000000 89.965736 -31.038221 1752.833740
33 -987.239868 1448.372803 0.001431 0.000000 89.965736 -31.038221 1752.833740
